<?xml version="1.0" ?><svg viewBox="0 0 64 64" xmlns="http://www.w3.org/2000/svg"><defs><style>.cls-1{fill:none;stroke:#000;stroke-linecap:round;stroke-linejoin:round;stroke-width:3px;}</style></defs><title/><g id="Outline"><path class="cls-1" d="M50,21V52a2,2,0,0,1-2,2H16a2,2,0,0,1-2-2V12a2,2,0,0,1,2-2H41Z"/><line class="cls-1" x1="19" x2="35" y1="18" y2="18"/><line class="cls-1" x1="19" x2="35" y1="25" y2="25"/><line class="cls-1" x1="19" x2="45" y1="32" y2="32"/><line class="cls-1" x1="19" x2="45" y1="32" y2="32"/><line class="cls-1" x1="19" x2="45" y1="39" y2="39"/><line class="cls-1" x1="19" x2="45" y1="39" y2="39"/><line class="cls-1" x1="19" x2="41" y1="46" y2="46"/><polyline class="cls-1" points="40 10 40 21 50 21"/></g></svg>